<?xml version="1.0" encoding="UTF-8" standalone="no"?>
<svg
   xmlns:dc="http://purl.org/dc/elements/1.1/"
   xmlns:cc="http://creativecommons.org/ns#"
   xmlns:rdf="http://www.w3.org/1999/02/22-rdf-syntax-ns#"
   xmlns:svg="http://www.w3.org/2000/svg"
   xmlns="http://www.w3.org/2000/svg"
   xmlns:sodipodi="http://sodipodi.sourceforge.net/DTD/sodipodi-0.dtd"
   xmlns:inkscape="http://www.inkscape.org/namespaces/inkscape"
   width="750pt"
   height="750pt"
   viewBox="0 0 750.00007 750"
   version="1.1"
   id="svg23"
   sodipodi:docname="original.svg"
   inkscape:version="0.92.4 (f8dce91, 2019-08-02)">
  <metadata
     id="metadata29">
    <rdf:RDF>
      <cc:Work
         rdf:about="">
        <dc:format>image/svg+xml</dc:format>
        <dc:type
           rdf:resource="http://purl.org/dc/dcmitype/StillImage" />
        <dc:title></dc:title>
      </cc:Work>
    </rdf:RDF>
  </metadata>
  <defs
     id="defs27" />
  <sodipodi:namedview
     pagecolor="#ffffff"
     bordercolor="#666666"
     borderopacity="1"
     objecttolerance="10"
     gridtolerance="10"
     guidetolerance="10"
     inkscape:pageopacity="0"
     inkscape:pageshadow="2"
     inkscape:window-width="1920"
     inkscape:window-height="1016"
     id="namedview25"
     showgrid="true"
     inkscape:zoom="0.39247063"
     inkscape:cx="461.90441"
     inkscape:cy="411.53513"
     inkscape:window-x="0"
     inkscape:window-y="27"
     inkscape:window-maximized="1"
     inkscape:current-layer="svg23"
     inkscape:pagecheckerboard="true">
    <inkscape:grid
       type="xygrid"
       id="grid3767"
       originx="-153.6644"
       originy="-91.230772" />
  </sodipodi:namedview>
  <g
     id="surface1"
     transform="matrix(1.470825,0,0,1.5133708,-553.34619,-589.58207)">
    <path
       style="fill:#211e1e;fill-opacity:1;fill-rule:nonzero;stroke:none"
       d="m 847.61328,564.13281 c -5.75,11.44922 -14.62109,22.0625 -28.10937,21.44922 -10.08985,-3.9375 -4.82032,-19.75 -6.80079,-28.10937 -1.46093,-6.21875 -7.16015,-8.82813 -13.07812,-9.00782 -0.17188,-0.0117 -0.33984,0 -0.51172,0 -0.76953,0.008 -1.53906,0.0586 -2.28906,0.17969 h -0.0117 c -3.28906,0.5 -6.41016,1.98828 -9.30078,3.82031 -0.94922,0.60938 -1.87891,1.25 -2.77735,1.91016 -1.15234,0.82812 -2.25,1.67969 -3.30078,2.50781 -4.08203,3.21094 -9.21093,8.74219 -14.78125,8.72266 -4.16015,-0.0117 -2.32812,-8.51172 -2.07031,-10.77344 0.21875,-1.82812 0.45313,-3.70703 0.66016,-5.59766 0.39843,-3.60937 0.72265,-7.28125 0.63281,-10.85937 -0.13281,-5.44922 -1.19141,-10.67969 -4.27344,-15.17188 -1.14844,-1.66015 -2.5664,-3.23046 -4.32812,-4.66015 -0.26172,-0.19922 -0.51953,-0.33985 -0.78907,-0.4375 -2.33203,-0.86328 -4.9414,2.02734 -2.75,3.97656 2.64844,2.35156 4.1875,5.12109 5.00782,8.14063 -1.60157,7.42187 -6.30078,18.10156 -14.20703,18.15234 -5.3711,0.0391 -6.11329,-9.5625 -6.54297,-13.17188 -1.23828,-10.42968 0.13281,-29.25781 -10.05078,-36.07812 0.28125,-3.66016 -0.0195,-7.53125 -0.84766,-11.32031 -0.0195,-0.082 -0.043,-0.15235 -0.0508,-0.23047 -0.16797,-0.71094 -0.35156,-1.42969 -0.55078,-2.14063 -0.50782,-1.82031 -1.14063,-3.60156 -1.89844,-5.32031 -1.87891,-4.28125 -4.51172,-8.14062 -7.82031,-11.07031 -2.39844,-2.10938 -5.89844,1.3125 -3.53907,3.53906 0.41797,0.39063 0.81641,0.8125 1.19922,1.23047 1.82813,2 3.23828,4.30078 4.30078,6.78125 0.48829,1.14062 0.89844,2.32031 1.23829,3.53125 0.0391,0.14844 0.0781,0.28906 0.12109,0.4375 1.35937,5.15234 1.42969,10.73047 0.51953,15.85156 -0.26953,1.44922 -0.72266,2.89844 -1.35156,4.28125 -1.07813,2.38672 -2.66797,4.53906 -4.59766,6.0586 -2.35156,1.83984 -5.21094,2.75 -8.3125,2.01953 -1,-0.23828 -2.02734,-0.64844 -3.0664,-1.25782 -3.07032,-1.79296 -5.77344,-3.76171 -9.30079,-4.61328 -0.19921,-0.0469 -0.41015,-0.0781 -0.60937,-0.1289 -5.49219,-1.10938 -11.29297,0.46093 -16.44141,2.26172 -3.89062,1.35937 -7.83203,1.6875 -11.63281,1.1875 0.64063,-0.42969 1.26172,-0.86719 1.86328,-1.33985 6.08985,-4.78906 8.97656,-11.75781 9.33985,-19.39844 0.14843,-3.28906 -4.64063,-3.1289 -5,0 -0.83985,7.39063 -6.23047,12.66016 -12.70313,15.66797 -0.59766,0.28125 -1.19922,0.54297 -1.81641,0.78125 -0.67187,0.26172 -1.34375,0.49219 -2.01953,0.69922 -1.76172,0.55078 -3.55078,0.94922 -5.36328,1.28125 -0.42969,0.0703 -0.85937,0.14844 -1.28906,0.21875 -1.51953,0.25 -3.03906,0.48047 -4.55859,0.72266 -0.48047,0.0703 -0.96094,0.14844 -1.44141,0.22656 -0.23828,0.043 -0.48828,0.10156 -0.73047,0.14063 -0.44141,0.0898 -0.86719,0.17187 -1.29687,0.26953 -0.0117,0.0117 -0.0234,0.0117 -0.0312,0.0117 -0.17969,0.0391 -0.35157,0.0898 -0.51954,0.1289 -0.14062,0.043 -0.29296,0.0703 -0.43359,0.10938 -0.61719,0.16015 -1.23828,0.33203 -1.84766,0.53125 -1.91015,0.60156 -3.78125,1.33984 -5.60156,2.17968 -0.9375,0.42969 -1.8789,0.89063 -2.80078,1.37891 -6.91016,3.65234 -12.30859,9.42188 -16.97656,15.5625 -1.99219,2.60938 -3.76172,5.37891 -5.55078,8.12891 -0.67188,1.03125 -1.35938,2.05859 -2.0586,3.07031 -0.16406,0.23047 -1.39062,1.83203 -1.61328,2.14062 -3.03906,2.46875 -6.53906,0.14063 -9.91015,-0.83203 -6.3086,-1.82031 -12.78907,-1.07812 -18.64063,1.82032 -4.88672,2.42968 -8.41797,7.85937 -11.45703,12.17187 -2.86328,4.05859 -5.5,10.25 -9.66016,13.14844 -3.79297,2.63281 -9.15234,-6.33985 -11.73047,-8.0586 -8.78125,-5.87109 -18.67187,6.00782 -23.8789,11.39844 -17.79297,19.17188 -24.85938,44.22266 -25.63281,69.94922 -0.35938,12.10156 0.96093,24.39063 3.98046,36.11328 2.45313,9.50781 6.39063,19.91797 13.46875,26.98047 0.35157,0.34766 0.70313,0.62891 1.0625,0.86719 -0.25,0.32031 -0.51171,0.63281 -0.80078,0.92187 -1.67968,1.6875 -3.57812,3.21875 -5.58984,4.62891 -5.12891,-7.39063 -10.39844,-14.78906 -14.08984,-23.03125 -0.76954,-1.71875 -3.46094,-0.48047 -2.96875,1.25 2.52734,8.96094 5.50781,17.82031 10.64843,25.70312 -2.51172,1.36719 -5.07812,2.61719 -7.60156,3.78907 -7.25781,-15.60938 -12.23828,-31.46094 -12.32031,-49.05078 -0.0156,-2.10938 -3.11719,-2.07032 -3.25,0 -1.17969,17.60937 0.80078,36.10156 8.55078,52.23046 -2.4375,1.0586 -4.90625,2.07032 -7.39063,3.03907 -4.61718,-11.94141 -7.92578,-23.91016 -9.14843,-36.76953 -1.35938,-14.26954 -0.64844,-28.78125 1.39062,-42.94922 3.73047,-25.90235 11.71875,-53.37891 25.30078,-75.91016 0.78907,-1.3125 0.25782,-2.53125 -0.70312,-3.19141 -0.86719,-0.80078 -2.17969,-1.00781 -3.22656,0.16016 -10.15235,11.37891 -20.39063,22.60156 -30.17188,34.3125 -9.21875,11.02734 -18.37891,22.10938 -27.85156,32.92969 -13.85547,15.82812 -28.71875,32.22656 -47.07813,42.97656 0.0625,-4.02734 0.1211,-8.05859 0.17188,-12.09766 8.4375,-5.23046 15.30078,-11.60937 22.25781,-18.58984 1.51953,-1.51953 -0.69141,-3.5625 -2.30078,-2.30078 -6.05078,4.76172 -12.86719,9.0625 -19.82813,12.60156 0.0508,-3.64062 0.0899,-7.28125 0.14063,-10.92187 0.008,0 0.008,-0.008 0.0195,-0.008 14.51172,-6.33984 26.37891,-19.61328 36.85938,-31.0625 15.25,-16.66796 29.21093,-34.50781 43.35937,-52.10937 15.83984,-19.67969 31.76953,-39.30078 48.82031,-57.94922 16.53125,-18.08203 34.26953,-36.28906 55.19922,-49.28125 16.26172,-10.09766 34.62891,-16.87109 53.53125,-19.96875 2.75781,-0.46094 5.53906,-0.83984 8.32031,-1.12891 1.30079,-0.14062 2.62891,-0.26171 3.98047,-0.36328 4.26953,-0.32031 8.70703,-0.41797 13.14844,-0.16797 0.79297,0.0391 1.58203,0.0977 2.37109,0.16797 0.23047,0.0234 0.44922,0.043 0.67969,0.0625 2.16797,0.21094 4.33203,0.50782 6.46875,0.91016 0.9336,0.17969 1.86328,0.39062 2.78125,0.60937 2.8086,0.67969 5.55078,1.57032 8.16016,2.69922 3.80078,1.66016 7.33203,3.83203 10.4414,6.64844 1.08985,0.98047 2.40625,0.78125 3.30079,0.082 1.05859,-0.85156 1.51562,-2.42187 0.23828,-3.62109 -0.57032,-0.52735 -1.16016,-1.01953 -1.76172,-1.50781 -0.66797,-0.5625 -1.34766,-1.08985 -2.04688,-1.60157 -2.5,-1.82812 -5.17968,-3.3789 -8,-4.66797 -4.04297,-1.85156 -8.33984,-3.20312 -12.76172,-4.15234 21.23829,-11.92969 45.08985,-17.83984 69.91016,-17 15.21875,0.51953 30.44922,4.25 43.82813,11.19922 3.28125,1.71094 6.46093,3.62109 9.5,5.72266 3.93359,2.71875 7.63281,5.75781 11.03125,9.1289 1.65234,1.64063 3.23046,3.33985 4.74218,5.12891 3.26953,3.89062 6.19922,8.14062 8.6875,12.76172 1.53907,2.84765 5.73828,0.33984 4.32032,-2.53125 -2.35938,-4.73828 -5.0586,-9.21875 -8.08985,-13.41016 13.48047,3.44922 25.96875,9.87891 36.00781,19.99219 11.47266,11.53906 19.0625,28.09765 20.94141,44.19922 1.32031,19.77734 -2.01953,41.51953 -10.96875,59.32812 m -50.85156,44.79297 c 0.15234,0.0273 0.30078,0.0664 0.45312,0.0977 0.29688,0.0703 0.60938,0.1289 0.88672,0.21093 0.26172,0.0703 0.52344,0.16797 0.77344,0.25782 1.37891,0.48047 2.61719,1.18359 3.61719,2.07031 1.25,1.14062 2.28125,2.5625 3.01172,4.19141 0.3789,0.78125 0.67968,1.67968 0.94921,2.53906 0.23829,0.89062 0.46875,1.83203 0.60938,2.78906 0.60937,3.78125 0.35156,7.79297 -0.75,11.61328 -0.51953,1.82813 -1.27734,3.59766 -2.14844,5.0586 -1.1289,1.78906 -2.49219,3.5625 -3.78906,5.17968 -0.57422,0.71094 -1.19141,1.42969 -1.82422,2.14844 -0.79687,0.90234 -1.63672,1.8125 -2.52734,2.72266 -0.3086,0.30859 -0.6211,0.62109 -0.94141,0.92187 v 0.008 c -0.62891,0.59766 -1.28906,1.19141 -1.96875,1.75 -0.67187,0.55079 -1.21094,0.98047 -1.78125,1.3711 -0.64844,0.47656 -1.36719,0.91797 -2.20703,1.34765 l -0.3125,0.12891 c -0.1875,0.082 -0.39063,0.17188 -0.58984,0.24219 h -0.008 l -0.64062,0.1914 v 0.008 l -0.35156,0.0508 c -1.41016,0.16797 -2.82032,-0.082 -3.96875,-0.75781 -0.12891,-0.0742 -0.26172,-0.16016 -0.39063,-0.26172 -0.33984,-0.25 -0.67187,-0.57813 -1,-0.98828 -0.35937,-0.45313 -0.67187,-1.02344 -0.87109,-1.66016 -0.0195,-0.0742 -0.0508,-0.16406 -0.0781,-0.24219 -0.0391,-0.0976 -0.10156,-0.39844 -0.15234,-0.62109 l -0.0391,-0.16797 c -0.008,-0.14063 -0.0312,-0.28125 -0.0391,-0.42188 -0.0195,-0.17968 -0.0508,-0.41796 -0.0508,-0.5 0.008,-0.1289 0.008,-0.25781 0,-0.38671 -0.0195,-0.48438 0.082,-1.10157 0.35938,-2.02344 0.28125,-0.96875 0.64843,-1.96094 1.04297,-3.00781 0.42968,-1.17188 0.8789,-2.37891 1.25781,-3.67188 0.21875,-0.73828 0.39062,-1.46094 0.51953,-2.14844 0.16016,-0.83984 0.26172,-1.66015 0.30078,-2.44922 v -0.18359 c 0.0586,-1.92969 -0.25,-3.75 -0.94922,-5.40625 -0.0234,-0.0508 -0.0508,-0.12109 -0.0703,-0.16016 -0.0312,-0.082 -0.10156,-0.21093 -0.14063,-0.28125 -0.78906,-1.44921 -1.96093,-2.73046 -3.39062,-3.6914 -1.16016,-0.78906 -2.30859,-1.25781 -3.28906,-1.66016 -0.0117,-0.008 -0.10157,-0.0508 -0.10938,-0.0508 -0.35156,-0.13672 -0.69922,-0.27734 -1,-0.41797 0.0391,-0.17187 0.12891,-0.41015 0.28906,-0.76172 0.17188,-0.38672 0.4375,-0.83984 0.83985,-1.41015 0.4414,-0.57813 0.8789,-1.13672 1.34765,-1.66797 0.89454,-1 1.97266,-2.01172 3.30079,-3.10156 1.25,-1.01954 2.42187,-1.85938 3.5625,-2.59766 0.0976,-0.0625 0.21093,-0.13281 0.30859,-0.19922 0.71094,-0.44141 1.37891,-0.85156 2.03906,-1.21094 0.73047,-0.39062 1.44922,-0.75 2.17188,-1.08984 0.14062,-0.0703 0.28906,-0.13281 0.4414,-0.19141 l 0.1875,-0.0781 v -0.0117 c 1.10157,-0.46875 2.28125,-0.89063 3.5,-1.23047 l 0.42969,-0.0781 c 0.26172,-0.043 0.51953,-0.0899 0.79297,-0.13282 l 0.47656,-0.0195 c 0.27344,-0.0195 0.53125,-0.0273 0.78906,-0.0391 l 0.35157,0.0195 c 0.26172,0.0195 0.51172,0.0312 0.76953,0.0625 m -276.98828,7.34766 c 1.85156,-8.91016 5.14843,-17.91016 9.11718,-26.07813 3.32422,-6.83203 7.71094,-12.66015 12.27344,-18.58984 1.71875,2.02734 3.87891,3.82812 6.25,4.95703 -5.28906,11.67187 -7.13281,24.54297 -7.5,37.25 -0.0625,2.15234 3,2.01953 3.25,0 1.63672,-13.03906 6.52735,-24.91797 12.31641,-36.53906 1.04297,-0.33985 2.08203,-0.84766 3.09375,-1.60938 3.94922,-2.94922 6.86719,-7.57031 9.9375,-12 -0.26953,0.66797 -0.53906,1.32813 -0.78906,2 -3.07032,8.0586 -4.25782,16.10156 -5.73047,24.51953 -0.55078,3.1211 3.94922,4.49219 4.82031,1.33203 3.85156,-13.99218 10.35156,-28.52343 19.78125,-39.72265 -4.42969,10.08203 -6.12891,21.17187 -7.46875,31.98047 -0.22266,1.83984 2.77734,2.1914 3.19922,0.4414 2.51953,-10.60937 6.86719,-20.4414 11.5664,-30.17187 0.69141,0.26172 1.38282,0.51953 2.07422,0.74219 1.13672,0.3789 2.28907,0.60937 3.42578,0.70703 -4.95703,13.96093 -6.30859,29.22265 -6.42578,43.83984 -0.0234,2.12109 3.06641,2.05078 3.25,0 1.41797,-16.25 6.31641,-31.26953 12.3086,-46.22656 0.91797,-0.6211 1.78906,-1.33985 2.58984,-2.17969 4.14063,-3.80078 6.41016,-9.70312 9.32813,-14.41016 4.17187,-6.75 9.51171,-12.30078 16.49218,-16.03125 -7.87109,9.91797 -13.73047,22.00782 -18.14843,33.25 -6.60157,16.75 -9.02344,33.89063 -9.19141,51.76954 -0.0312,3.25 4.76953,3.17968 5,0 1.16016,-16.32813 5.89844,-33.32813 12.55859,-48.23829 3.19922,-7.17187 7.14063,-13.99218 11.60157,-20.4414 4.75,-6.87891 10.63671,-12.39844 16.35937,-18.39844 0.17969,-0.19141 0.35156,-0.39062 0.5,-0.59375 2.39063,0.86328 4.83984,1.49219 7.33984,1.85156 -11.57812,15.08985 -20.51953,31.46094 -26.73046,49.6211 -0.6875,2.02734 2.35937,2.75 3.14062,0.87109 7.67969,-18.5625 19.51953,-35.73047 33.12109,-50.44141 1.42969,-0.21093 2.84766,-0.49218 4.25,-0.90234 1.60938,-0.46875 3.28907,-1.14844 4.98829,-1.79687 -10.80079,12.89843 -18.92969,28.41796 -25.64844,43.52734 -0.83985,1.87109 1.80859,3.53125 2.80078,1.64062 4.33984,-8.16796 9.64844,-16.07812 15.01562,-23.60937 5.89454,-8.26953 12.83204,-15.39844 19.41016,-23.05859 0.27344,0.0898 0.53125,0.16796 0.80078,0.28906 2.01172,0.85156 3.78906,2.01953 5.66016,3.03125 -8.46094,8.66797 -15.07031,18.97656 -20.88672,29.59765 -1.57422,2.8711 2.47656,5.1211 4.31641,2.51954 3.9414,-5.57032 9.07031,-10.75 13.76171,-15.71875 5.35938,-5.67969 11.21094,-11.01172 17.85938,-15.14063 0.53125,-0.32812 0.97266,-0.6875 1.33984,-1.07812 5.21094,-2.71094 8.97266,-7.94141 10.72266,-13.92969 1.76562,2.32031 2.57812,5.42969 2.95703,8.63672 -19.00781,13.36328 -32.62891,35.35156 -41.67969,56.23047 -0.80859,1.88281 1.85157,3.55078 2.8125,1.64062 5.16016,-10.23047 12.01953,-20.03125 19.27735,-28.87109 6.03125,-7.33985 12.85937,-13.4375 19.98047,-19.48828 0.0508,2.57031 0.0391,5.23046 0.10937,7.92187 -9.48828,9.17969 -17.16016,19.30859 -24.14062,30.47656 -1.14063,1.82032 1.58203,3.26172 2.80078,1.64063 6.37109,-8.4375 13.94922,-16.32813 22,-23.35938 0.37109,2.53907 0.97265,5.01172 1.88281,7.3711 -19.24219,15.1875 -33.10156,39.02734 -38.79297,62.64843 -4.64844,19.26172 -3.25,38.28907 2.76172,56.64063 -2.17969,-0.62109 -4.37891,-1.17969 -6.58984,-1.69141 -0.0312,-0.10937 -0.0508,-0.20703 -0.10157,-0.32031 -4.92968,-11.87891 -9.52734,-23.84766 -10.89843,-36.76953 -0.21094,-2.02734 -3.25,-2.12891 -3.25,0 0.0195,12.04297 1.28906,24.03125 5.48828,35.35156 -2.27735,-0.39062 -4.57032,-0.71875 -6.86719,-1.01953 -0.0898,-0.49219 -0.23438,-0.98047 -0.45313,-1.48047 -6.1875,-14.17187 -9.54687,-27.67969 -9.45703,-43.26953 0.0859,-16.85937 3.75,-34.85156 10.02735,-50.5 1.05859,-2.62891 -3.35938,-4.46875 -4.57032,-1.92187 -3.85937,8.12109 -7.5,16.10156 -9.94921,24.78125 -2.55079,9.01171 -4.05079,18.30859 -4.75782,27.64062 -1.0625,13.84766 -0.0234,30.14844 5.75,43.39844 -1.35156,-0.0977 -2.70312,-0.1875 -4.04297,-0.25781 -4.50781,-8.62891 -8.41796,-17.48047 -10.23046,-27.16016 -0.33985,-1.80078 -3.3086,-1.39063 -3.1875,0.42969 0.55859,8.98828 1.79687,17.98047 5.07031,26.37109 -1.58203,-0.0508 -3.17188,-0.10156 -4.75,-0.13281 -4.63281,-9.86719 -8.53125,-19.5 -10.55078,-30.39063 -2.1211,-11.41797 -2.30078,-23.97656 -0.71094,-35.47656 0.28125,-2.02344 -2.71875,-2.96094 -3.12891,-0.86328 -4.29297,21.94141 -3.75,45.97266 5.73828,66.63281 -1,0 -2,-0.0117 -3,-0.0117 -1.17968,0 -2.35937,0.0117 -3.53906,0.0117 -0.12109,-0.29297 -0.25,-0.58984 -0.41797,-0.89062 -6.14062,-10.83985 -11.13281,-23.58985 -13.3125,-35.87891 -0.48828,-2.79297 -5.07031,-2.13281 -4.91015,0.65625 0.38281,6.58203 0.58984,12.71094 1.89843,19.23438 1.15235,5.76562 2.85157,11.41015 4.95313,16.89843 -1.33203,0.008 -2.66016,0.008 -3.99219,0.008 -1.34765,0 -2.71875,0.0195 -4.10937,0.0508 -4.36719,-8.78125 -8.73047,-17.58985 -11.33985,-27.10938 -0.57031,-2.08203 -3.41015,-1.14062 -3.1289,0.85938 1.21875,8.9414 2.66797,17.98047 6.19922,26.33984 -2.83204,-0.0508 -5.64063,-0.25 -8.33985,-0.75 -0.0508,-0.17969 -0.10156,-0.35937 -0.17969,-0.53906 -5.42968,-12.21875 -9.87109,-24.64844 -11.60937,-38.01172 -0.26953,-2.00781 -3.32031,-2.14844 -3.25,0 0.37109,11.67969 1.30859,23.99219 5.41016,35.14062 -1.83985,-0.87109 -3.67188,-1.75 -5.53907,-2.47656 -2.12109,-0.83203 -4.29297,-1.27344 -6.47265,-1.40234 -3.76953,-12.28906 -6.01953,-25.71875 -5.98047,-38.51953 0.0117,-3.28907 -4.67969,-3.14063 -5,0 -0.78125,7.58984 -1.57031,14.71093 -1.23047,22.37109 0.28125,6.00781 1.0625,12 2.21094,17.89844 -6.73828,3.07031 -10.62891,8.55078 -11.86719,16.07031 -1.20313,7.30078 0.47656,14.78906 -0.8125,22.03125 -0.48828,2.69922 -1.83984,4.08984 -4.64844,4.1875 -2.1914,0.082 -4.28125,-6.75781 -5.0625,-8.30078 -3.94922,-7.80859 -12.59765,-8.73047 -18.91797,-2.91797 -2.55859,2.34766 -3.70312,5.46875 -4.53125,8.73047 -9.98828,-14.25 -13.07031,-33.01172 -13.60156,-50 -0.72656,-23.10938 4.51172,-49.63281 19.80078,-67.71094 3.65235,-3.35937 8.71094,-8.28906 14.03125,-9.01953 -11.25781,13.64844 -16.30859,31.80859 -18.55859,48.94922 -0.24219,1.82031 2.82812,2.19922 3.19922,0.42969 M 762.38281,765.8125 c -0.1289,1.83984 -0.33203,3.67187 -0.55078,5.49219 -0.20703,1.73047 -0.45703,3.4375 -0.75781,5.14062 -0.082,0.48047 -0.15235,0.95703 -0.24219,1.44922 -0.42969,2.23047 -0.94141,4.42969 -1.51953,6.59766 -0.60938,2.25 -1.30859,4.46093 -2.08984,6.63281 -0.71875,1.94922 -1.48047,3.87891 -2.34766,5.75 -5.42188,11.58984 -14.0625,19.80078 -27,19.05859 -3.33984,-1.30859 -4.58203,-4.21093 -5.14063,-7.42968 -0.13281,-0.73047 -0.22265,-1.48047 -0.29296,-2.23047 -0.0274,-0.32813 -0.0586,-0.66797 -0.0899,-1.00782 -0.0781,-1.04296 -0.1289,-2.08984 -0.16797,-3.13281 0,-0.10937 -0.0117,-0.20703 -0.0117,-0.32031 -0.0469,-1.59766 -0.0586,-3.19922 -0.0586,-4.80859 v -2.44141 c 0.0117,-2.28906 0,-4.57813 -0.10937,-6.85938 -0.0391,-0.91796 -0.10157,-1.82812 -0.17969,-2.75 -0.0117,-0.0977 -0.0234,-0.1875 -0.0312,-0.28906 -0.0703,-0.80859 -0.16797,-1.60156 -0.28906,-2.39844 -0.76172,-5.05078 -2.45313,-9.82031 -6.05079,-13.64062 -5.5625,-5.91016 -13.5625,-7.16016 -20.91796,-4.46094 -5.29297,1.94141 -11.14454,5.89063 -16.63282,2.41016 -3.46875,-2.19922 -5.42968,-7.23047 -7.36718,-10.64063 -7.28125,-12.75781 -17.52344,-20.07812 -31.86329,-23.53125 -2.67968,-0.48828 -5.39843,-0.89843 -8.1289,-1.23828 -1.16797,-0.14844 -2.33985,-0.28125 -3.51953,-0.39062 -3.28907,-0.3086 -6.60157,-0.48047 -9.89844,-0.46094 -2.80078,0.0117 -5.60156,0.16016 -8.38281,0.47266 -6.14063,0.6875 -12.16797,2.16015 -17.89063,4.73828 -6.16015,2.76953 -11.23828,6.55859 -15.71094,11.23047 -1.67578,1.76171 -3.28906,3.6289 -4.8164,5.64062 -0.082,0.0977 -0.16016,0.19922 -0.24219,0.30078 -0.60937,0.82031 -1.23828,1.76953 -1.91016,2.75 -0.71875,1.0586 -1.48828,2.12891 -2.33984,3.07031 -0.94141,1.03907 -1.96875,1.91016 -3.14844,2.41016 -1.83984,0.76953 -4.29297,0.44922 -6.74218,-0.12109 -2.41797,-0.57032 -4.85938,-1.39063 -6.75,-1.65235 -2.91797,-0.39843 -5.8086,-0.57812 -8.66797,-0.57031 -13.83203,0.0508 -26.82032,4.85156 -37.67969,14.02344 -11.37891,9.58984 -19.74219,24.05859 -23.76953,38.32031 -3.32031,-1.97266 -6.65235,-3.93359 -9.97266,-5.89062 0.40235,-1.1211 0.8711,-3 1.03906,-3.46094 8.40235,-22.39844 24.23438,-45.69141 47.54297,-54.69141 1.91797,-0.73828 1.16016,-3.80078 -0.85937,-3.14062 -12.5,4.08984 -22.75,11.42187 -31.9336,20.75 -9.32812,9.47265 -18.64843,22.01172 -22.02734,35.07031 -0.10156,0.37109 -0.26953,1.01172 -0.37109,1.58203 -5.94141,-3.5 -11.89063,-7 -17.83985,-10.48047 0.0899,-0.0586 0.17969,-0.10937 0.26953,-0.17969 5.70313,-4.55859 9.60938,-11.33203 14.98047,-16.26953 1.35938,-1.25 -0.41015,-3.53125 -1.96875,-2.55078 -3.26953,2.05078 -6.40234,3.91797 -9.46875,6.33985 -2.95312,2.32812 -6.12109,4.58984 -8.88281,7.14062 0,0 -0.91016,0.89063 -1.55078,1.66016 -7.30859,-4.26172 -14.60938,-8.51953 -21.91797,-12.78125 14.51953,-2.08985 28.26953,-8.66016 41.10938,-15.33985 1.60937,-0.83984 0.44921,-3.6914 -1.25782,-2.96875 -15.28125,6.44922 -30.97265,10.01953 -47.42187,11.41797 -0.4375,0.0391 -2.39063,0.22266 -3.53516,0.41016 -5.5039,-3.21485 -11.00781,-6.44922 -16.5039,-9.67969 19.59765,-1.66797 39.26953,-6.60937 58.08984,-11.98828 20.55859,-5.88281 41.78906,-13.15234 59.75,-25.01953 3.35937,-2.21094 6.55859,-4.71094 9.50781,-7.44141 3.12891,-2.91015 4.36328,-7.39062 5.35156,-11.39062 0.92188,-3.75 1.39844,-8.3086 4.01172,-11.33985 3.33594,-3.89843 5.66016,-0.42968 7.20703,2.62891 3.30079,6.5 7.57032,12.67969 15.8086,9.28125 6.5625,-2.69922 7.45312,-9.80078 7.09375,-16.08984 -0.41016,-7.12891 -2.04297,-15.60157 0.89844,-21.80079 1.16015,-2.4375 3.03906,-4.52734 5.98046,-6.05078 0.46875,-0.23828 0.94922,-0.46875 1.46094,-0.67968 2.56641,-0.69922 4.96875,-0.64844 7.26953,-0.16797 2.58985,0.53906 5.04688,1.64062 7.5,2.91797 4.62891,2.41015 9.20703,5.40234 14.41797,6.24218 12.8711,2.07032 26.5625,1.46094 39.57031,1.96094 11.96875,0.44922 23.96094,1.10938 35.8125,2.95703 13.05079,2.04297 25.23829,6.17969 37.78907,10.0625 6.98828,3.32813 14.07031,6.00781 20.73828,10.08985 6.26172,3.83984 11.91015,8.51953 17.02344,13.77734 7.33984,7.55078 14.40625,17.71094 17.13671,28 1.5625,10.13281 2.26172,21.15234 1.46094,32 m -50.98047,28.76172 c -0.0781,2.03125 -0.16015,4.17969 -0.17968,6.37109 -2.07032,1.21875 -4.14844,2.42969 -6.21875,3.64844 -0.5,-0.80078 -0.99219,-1.58984 -1.48047,-2.39063 -1.10938,-1.83984 -2.46094,-3.5 -3.51953,-5.3789 -0.87891,-1.57031 -3.67188,-0.48047 -2.96875,1.25 0.79687,1.96875 1.25781,4.03125 2.05859,6 0.42969,1.07031 0.87891,2.14062 1.33984,3.19922 -2.35937,1.3789 -4.71875,2.78125 -7.08203,4.16015 -5.21094,-7.98047 -9.82812,-17.55859 -11.76953,-26.78125 -0.57812,-2.75781 -5.08984,-2.14843 -4.91016,0.66016 0.70313,11.13281 3.03125,21.30078 7.75,31.39062 -2.23046,1.3125 -4.45703,2.6211 -6.6875,3.94141 -2.28125,-3.69922 -4.44921,-7.62109 -6,-11.5625 -0.75,-1.90625 -3.68359,-1.20703 -3.13281,0.86328 1.23047,4.69922 2.49219,9.13672 4.27344,13.5586 -0.68359,0.41015 -1.37109,0.80859 -2.05078,1.21093 -1.77344,1.05078 -3.53906,2.08985 -5.3125,3.14063 -5.64844,-7.98047 -10.1875,-17.08203 -12.87891,-26.42188 -0.58203,-2.03906 -3.51953,-1.17968 -3.1289,0.85938 1.98046,10.41015 4.98046,19.87109 10.21875,28.98047 -1.92969,1.1289 -3.84766,2.28125 -5.78125,3.41015 -5.82813,-6.46875 -11.36719,-13.16797 -15.25782,-21.05859 -0.82031,-1.65234 -3.55078,-0.49219 -2.96875,1.25781 2.79688,8.40235 6.21875,16.65235 11.69922,23.66016 -1.36328,0.80078 -2.72265,1.60156 -4.08203,2.41015 -3.07812,-2.96875 -6.39844,-5.59765 -9.28906,-8.80859 -3.5586,-3.94922 -6.44141,-8.44922 -9.00781,-13.08984 -5.17188,-9.35157 -8.89454,-20.73047 -10.44141,-31.28125 -0.42188,-2.80078 -5.05859,-2.1211 -4.92188,0.67187 0.64063,12.5 2.48047,23.63672 7.39063,35.26953 3.47266,8.21875 8.78906,17.16016 15.60937,23.52735 -2.14843,1.28125 -4.29687,2.55078 -6.44921,3.82031 -0.17188,-0.37891 -0.37891,-0.75781 -0.69922,-1.12891 -8.05078,-9.07031 -15.19922,-18.51953 -19.49219,-30.03906 -0.71875,-1.94141 -3.64844,-1.19922 -3.12891,0.85938 3.1211,12.32812 7.91016,24.73046 16.89063,34.12109 -1.83985,1.09766 -3.67969,2.1875 -5.51953,3.27734 -0.17188,-0.41015 -0.41016,-0.82031 -0.76172,-1.20703 -4.91016,-5.38281 -10.28125,-10.4414 -14.19922,-16.66015 -0.92969,-1.49219 -3.67969,-0.51954 -2.96875,1.25 2.92969,7.26953 6.05859,14.57812 11.53125,20.42968 -1.49219,0.87891 -2.97266,1.76953 -4.45313,2.66016 -9.57031,-8.92188 -17.96875,-18.33203 -23.48046,-30.40234 -0.76954,-1.67969 -3.5586,-0.48047 -2.97657,1.25 4.10938,12.13281 9.95703,24.46093 19.66016,33.23046 -1.88281,1.12891 -3.76172,2.26172 -5.64453,3.39063 -6.63672,-6.48047 -13.16797,-12.05859 -18.37891,-19.98047 -5.80078,-8.82031 -10.55078,-19.48828 -13.07812,-29.73828 -0.80078,-3.21094 -5.26953,-1.76172 -4.82032,1.32812 0.87891,6.10938 1.57813,11.83985 3.44922,17.75 1.67188,5.28907 3.91016,10.42188 6.44141,15.35157 1.19922,2.33984 2.53906,4.73828 4.01953,7.10937 -5.64844,-3.3789 -11.28906,-6.75 -16.94922,-10.10937 -6.39062,-11.24219 -11.60156,-23.73047 -14.08203,-36.44922 -0.35156,-1.79297 -3.41016,-1.40235 -3.19141,0.42969 1.24219,10.52734 3.57422,20.39062 7.23438,30.05859 -4.24219,-2.51953 -8.48438,-5.03125 -12.73438,-7.53125 -4.13671,-11.67969 -6.46875,-24.28906 -6.09765,-36.66797 0.0703,-2.12109 -3.05078,-2.03906 -3.25,0 -1.07031,11.00781 -0.71094,21.46875 1.46875,32.00781 -2.96875,-1.75 -5.92969,-3.5 -8.89844,-5.25 -1.03906,-5.63672 -1.97266,-11.61718 -2.10156,-17.33984 -0.0391,-2.13672 -3.03125,-2.03906 -3.25,0 -0.48828,4.62109 -0.89844,9.07031 -0.94922,13.63281 -5.5,-3.24219 -11,-6.48047 -16.48828,-9.72265 0.3164,-0.87891 0.61719,-1.87891 0.77734,-2.36719 4.48047,-12.91016 10.14063,-24.98047 20.28125,-34.46094 1,-0.92969 2.03906,-1.78906 3.09766,-2.60156 -2.08985,6.10156 -3.46875,12.4414 -4.50781,18.85156 -0.33204,2.01953 2.53125,2.91016 3.1289,0.85938 2.67969,-9.17188 7.21094,-17.51954 11.96094,-25.73047 4.21094,-1.66016 8.64062,-2.69141 13.17969,-3.12891 -3.19141,9.91797 -3.98047,20.39063 -3.87891,30.75781 0.0195,2.14063 3.03906,2.05078 3.25,0 1.11719,-10.79687 4.73828,-20.9375 8.64844,-30.95703 2.76953,0.12891 5.55078,0.45703 8.3125,0.96875 -0.77344,3.57031 -1.29297,7.19141 -1.6836,10.67969 -0.98828,8.71094 0.11329,16.83984 0.82422,25.46875 0.25782,3.17969 4.87891,3.25 5,0 0.28907,-7.48828 1.33594,-15.39844 2.73828,-22.75 0.91016,-4.78906 2.41016,-9.11719 4.23829,-13.32031 2.68359,-0.8086 5.12109,-2.42969 7.41015,-5.11719 -1.46875,10.07812 -1.71094,20.36719 -1.32031,30.42969 0.082,2.09765 3.15234,2.08984 3.25,0 0.71094,-15.10938 4.79297,-29.44922 8.76953,-43.91016 1.97266,-2.10937 4.16406,-4.08203 6.80078,-5.78906 1.80078,-1.16016 3.67969,-2.17969 5.64063,-3.08985 -7.77735,19.84766 -10.35157,42.00782 -8.42969,63.02735 0.19141,2.05078 3.32031,2.12109 3.25,0 -0.33203,-10.66797 1.12891,-21.66797 3.32031,-32.08985 2.42969,-11.59765 6.8711,-22.27734 10.96875,-33.32812 0.11328,-0.3125 0.17188,-0.60156 0.19141,-0.89063 3.32031,-0.85937 6.73047,-1.46093 10.17969,-1.82031 -3.5586,10.80078 -4.73829,22.01953 -5.17188,33.46875 -0.0977,2.76953 4.51172,3.48047 4.91406,0.66016 0.77735,-5.39063 2.62891,-10.71094 4.07813,-15.96094 1.78125,-6.40625 4,-12.75 7.19922,-18.59766 2.37109,0.0586 4.71093,0.21094 7.01172,0.44141 -4.28907,17.28906 -5.71094,34.41797 -3.42969,52.10938 0.25781,2.01953 3.35937,2.14843 3.25,0 -0.8711,-17.0625 2.36719,-34.46094 7.64844,-50.6211 3.46093,1.23828 6.49218,2.83985 9.19921,4.73828 -2.29687,11.67188 -3.07812,23.01172 -2.6289,34.91016 0.082,2.10156 3.14844,2.08984 3.25,0 0.46875,-10.00781 2.48047,-20.17969 5.16015,-29.91016 3.08985,3.24219 5.73047,6.99219 8.14844,11.19141 -0.008,0.0703 -0.0273,0.12891 -0.0273,0.19922 -1.28125,13.26953 -0.4336,25.78906 2.3164,38.78125 0.44141,2.10156 3.41016,1.14844 3.13282,-0.85938 -1.3086,-9.38281 -1.0586,-19.26953 0.0703,-28.83203 5.03125,6.6211 11.84766,9.58985 20.80859,7.17969 0.3125,4.23047 1.69141,8.17187 3.3125,12.42969 0.72657,1.92187 3.6875,1.20312 3.12891,-0.85938 -1.14063,-4.21875 -1.69141,-9.01953 -0.92188,-13.42969 5.20313,-1.78906 10.3125,-2.87109 14.14063,2.96094 3.23047,4.91797 2.30078,12.3711 2.08984,17.91016 M 383.18359,746.98437 c 0.0586,-5.39062 0.12891,-10.76953 0.19922,-16.16015 0.17969,-0.0703 0.35938,-0.14063 0.53906,-0.25 10.95313,-6.51172 19.75,-14.96094 28.35938,-24.21875 1.44141,-1.55078 -0.73047,-3.66016 -2.30078,-2.30078 -8.04688,6.9375 -16.98828,13.39062 -26.48828,18.30859 0.0508,-3.89844 0.10937,-7.80078 0.17187,-11.71094 0.21094,-0.0781 0.41797,-0.16015 0.63672,-0.28906 16.01172,-9.30078 28.30078,-22.6875 40.13281,-36.64844 1.33985,-1.58203 -0.80859,-3.82031 -2.30078,-2.30078 -11.37109,11.53906 -24.00781,22.89063 -38.35156,30.69922 0.0625,-3.78906 0.10937,-7.58984 0.17187,-11.39062 0.57813,-0.12891 1.17188,-0.33985 1.76172,-0.67969 20,-11.26953 35.63672,-29.09766 50.09766,-46.56641 13.46875,-16.27344 26.03906,-33.28125 38.91797,-50.02344 -7.41797,16.42969 -12.58985,33.8125 -15.79688,51.72266 -4.87109,27.1875 -5.82031,58.70703 5.64844,84.57813 -2.58984,0.85937 -5.19922,1.6914 -7.82031,2.48046 -4.38672,-11.8789 -7.76953,-23.55859 -8.89844,-36.39062 -1.60156,-18.10156 0.4375,-36.98828 4.71094,-54.60156 0.48828,-2.02735 -2.5625,-2.87891 -3.14063,-0.85938 -8.54297,29.8125 -12.42968,64.44922 -0.1914,94 -3.80078,1.03125 -7.61719,2 -11.44141,2.92188 -1.53906,-6.21094 -3.09766,-12.3125 -3.84766,-18.76172 -0.97265,-8.26953 -1.28906,-17.05078 -0.72265,-25.35938 0.13281,-1.82031 -2.90625,-2.25 -3.1875,-0.42968 -2.28125,15.01171 -3.48047,31.25 0.23828,46.26953 -3.15625,0.69922 -6.31641,1.37109 -9.46875,2.01172 -3.66016,0.73828 -7.33203,1.41015 -11,2.02734 1.98828,-8.88672 4.10937,-17.71875 7.69141,-26.16797 0.79687,-1.87109 -1.74219,-3.51953 -2.80079,-1.64062 -5.1914,9.14062 -10.32031,18.75 -12.92187,29.07031 -5.57813,0.82031 -11.16797,1.53125 -16.77734,2.17969 -0.67188,0.0703 -1.27344,0.23828 -1.82032,0.48046 M 863.58203,504.80469 c -1.42969,-18.85938 -7.39062,-35.82032 -20.01953,-50.12891 -13.80859,-15.65234 -33.44922,-23.82031 -53.64844,-27.14062 -3.99219,-3.6211 -8.36328,-6.88282 -13.12109,-9.73047 -14.16797,-8.47266 -30.50781,-12.67969 -46.83985,-14.17188 -28.17968,-2.58984 -60.78125,3.6211 -85.03906,19.71094 -19.08984,-11.12891 -38.21094,-22.21875 -57.24219,-33.46094 -0.32031,-0.1875 -0.62109,-0.27734 -0.91796,-0.30078 h -0.32032 c -0.30078,0.0234 -0.60937,0.11328 -0.92187,0.30078 -40.03906,23.65235 -80.28906,46.94922 -120.32031,70.64063 -28.89063,17.10937 -57.89063,34.05859 -86.60938,51.44922 -0.53125,0.32031 -0.94922,0.6914 -1.28906,1.10156 -0.66016,0.75 -1.07813,1.75 -1.07813,3.03906 v 0.35938 c 0,40.17968 0.57813,80.37109 1.02735,120.5625 0.0312,2.4414 0.0586,4.8789 0.082,7.32812 0.0508,3.89063 0.0898,7.76953 0.1289,11.66016 0.0781,8.44922 0.19922,16.90234 0.32813,25.35156 0.0312,2.20703 0.0703,4.41797 0.10937,6.62891 0.20313,12.51953 0.42188,25.05078 0.6211,37.57031 0.0195,0.98828 0.0391,1.98828 0.0508,2.98047 0.15234,9.09765 0.28125,18.19922 0.37891,27.30078 0.0117,0.63672 0.25,1.11719 0.60937,1.44922 0.12109,0.12109 0.25,0.23047 0.41406,0.32812 8.72657,5.41016 17.4375,10.85156 26.14844,16.29297 0.26953,0.15625 0.53906,0.32813 0.80859,0.5 30.48047,19.03906 60.90235,38.17969 91.45313,57.09766 28.55859,17.67968 57.02734,35.51953 85.75781,52.92187 0.83985,0.50781 1.67969,0.73047 2.46094,0.71875 0.78125,0.0117 1.60937,-0.21094 2.45703,-0.71875 39.79297,-24.08984 79.19141,-48.85156 118.73438,-73.33984 1.25781,-0.78125 2.50781,-1.5625 3.76562,-2.33985 0.88281,8.14844 3.88281,15.58985 12.75,18.26954 0.24219,0.0703 0.48438,0.14843 0.74219,0.21875 0.30859,0.0586 0.60937,0.10937 0.92187,0.17187 16.41797,3 29.89844,-9.69141 36.4375,-23.62109 4.73047,-10.07032 6.89063,-20.73047 7.39063,-31.53907 7.78906,-4.90234 15.59765,-9.78125 23.42187,-14.63281 0.16016,-0.0976 0.28907,-0.20703 0.41016,-0.32812 0.35937,-0.33203 0.59766,-0.8125 0.60937,-1.44922 0.33985,-31.65235 0.86719,-63.30078 1.31641,-94.95313 0.47266,-0.25 0.93359,-0.5 1.36328,-0.76953 0.25,-0.14844 0.5,-0.32031 0.73828,-0.48828 l 0.21094,-0.14062 c 0,0 0.0117,0 0.0117,-0.0117 0.0273,-0.0195 0.0469,-0.0391 0.0781,-0.0586 0.0117,0 0.0117,0 0.0195,-0.008 1.73046,-1.18359 3.4414,-2.55078 5.23046,-4.19141 1.66016,-1.53125 3.33985,-3.28906 5.30079,-5.57031 1.57031,-1.83984 3.21875,-3.85937 4.71093,-6.09765 1.50782,-2.3125 2.66016,-4.88282 3.51953,-7.83204 0.77735,-2.57031 1.23047,-5.35156 1.34766,-8.24218 0.13281,-2.9375 -0.0977,-5.75782 -0.66797,-8.32813 -0.6289,-2.98047 -1.6914,-5.71875 -3.1289,-8.08984 -1.54297,-2.60156 -3.63282,-4.89063 -6.0625,-6.64063 -2.33985,-1.66797 -5.0586,-2.83984 -8.1211,-3.48828 -0.44922,-0.0898 -0.8789,-0.16015 -1.3164,-0.23047 l -0.5625,-0.0898 c -0.14063,-0.0312 -0.28907,-0.043 -0.42969,-0.0508 -0.3711,-0.0312 -0.75,-0.0391 -1.1211,-0.0508 l -0.28906,-0.008 h -0.0898 c 0.14844,-13.89062 0.30859,-27.77343 0.4414,-41.66015 1.82813,-0.48047 4.53907,-0.6211 5.60938,0.36719 0.57812,0.54296 0.48047,3.72265 0.45703,5.0625 -0.1875,12.59765 -1.81641,28.03906 13.18359,32.41796 0.23829,0.0703 0.48047,0.15235 0.71875,0.21094 0.33204,0.0703 0.64844,0.1211 0.96875,0.17969 16.51954,2.87109 29.51954,-11.16797 36.51172,-24.55078 10.91797,-20.89844 12.25782,-44.8086 9.39844,-67.73828"
       id="path2"
       inkscape:connector-curvature="0" />
    <path
       style="fill:#211e1e;fill-opacity:1;fill-rule:nonzero;stroke:none"
       d="m 816.17187,480.65625 c 2.33204,6.65234 1.89844,19.76172 -6.01953,22.82812 -12.77734,4.94922 -19.13672,-16.18359 -24.50781,-23.32812 -3.82422,-5.64453 -10.58984,-13.33984 -18.32031,-11.86719 -5.16797,0.98438 -7.29688,5.90625 -10.69531,8.98828 -3.80469,3.45313 -8.57422,-6.34375 -9.98047,-8.64062 -3.9336,-6.42578 -7.72657,-12.72656 -13.59766,-17.6211 -2.13281,-1.77343 -5.15234,1.09766 -3.09375,3.09766 6.00781,5.82422 8.46094,16.05469 13.28125,23.56641 0.0469,0.0703 0.0898,0.14062 0.13281,0.20703 0.0234,0.0312 0.0391,0.0625 0.0586,0.0898 0.22265,0.33985 0.45312,0.67578 0.6875,1 1.65234,2.3125 3.58984,4.29688 6.0039,5.71094 0.48828,0.28906 1,0.54687 1.53125,0.78516 0.27735,0.125 0.55469,0.25 0.84375,0.36328 1.04688,0.39843 2.08985,0.54297 3.11719,0.49609 2.30469,-0.10937 4.52344,-1.20312 6.48438,-2.66016 1.64062,-1.22265 3.10937,-2.69921 4.29687,-4.05859 1.01953,-1.16797 1.91016,-2.16797 2.75781,-2.16797 2.53516,0 5.72266,4.96875 7.61328,7.66406 0.0312,0.0586 0.0586,0.11719 0.0977,0.17969 3.51172,5.73047 8.16016,13.8086 14,19.60938 1.62109,1.60547 3.32813,3.04297 5.13281,4.19922 4.96875,3.1914 10.64844,4.30859 17.07032,1.29687 11.86328,-5.56641 11.60546,-21.11328 7.10546,-31.42578 -0.99218,-2.26953 -4.8125,-0.63672 -4,1.6875"
       id="path4"
       inkscape:connector-curvature="0" />
    <path
       style="fill:#211e1e;fill-opacity:1;fill-rule:nonzero;stroke:none"
       d="m 651.14453,458.14844 c 0.16016,5.86718 -1.49219,11.85937 -7.35937,14.26953 -6.3125,2.58984 -13.25391,1.42969 -19.77344,2.8164 -5.14844,1.09375 -8.19141,5.3125 -9.79297,10 -1.73438,5.08594 -1.74609,8.2461 -6.4375,10.76172 -3.82422,0.88672 -6.84375,1.76172 -10.625,-0.0742 -3.58984,-1.74609 -6.66797,-4.5039 -9.85156,-6.86718 -3.625,-2.6875 -7.53907,-4.83594 -11.86719,-6.15235 -5.96094,-1.80859 -11.61328,-0.73437 -17.51953,0.67578 -2.81641,0.67579 -1.53906,4.59375 1.16406,4.21875 11.60938,-1.60156 19.57422,4.17969 27.64844,11.45704 6.76562,6.10156 15.09375,9.73437 23.92969,6.50781 0.0625,-0.0156 0.1289,-0.0234 0.1914,-0.043 6.27735,-1.79688 9.86328,-6.89844 11.23047,-13.04297 0.50781,-2.27734 0.60938,-4.81641 1.58203,-6.96484 1.48828,-3.28516 6.04688,-3.02344 9.0586,-3.41407 6.53515,-0.84765 13.0664,-2.17968 18.25,-6.48828 5.2539,-4.36328 5.20703,-11.46484 4.54687,-17.66015 -0.29297,-2.73828 -4.45312,-2.875 -4.375,0"
       id="path6"
       inkscape:connector-curvature="0" />
    <path
       style="fill:#211e1e;fill-opacity:1;fill-rule:nonzero;stroke:none"
       d="m 696.31641,700.0625 c 0.96093,9.51172 -5.78516,20.17578 -16.30079,17.28125 -8.38671,-2.30859 -12.89062,-11.72656 -18.09375,-17.83203 -0.0586,-0.0703 -0.125,-0.13281 -0.1875,-0.19922 -4.80859,-5.69531 -11.85546,-9.53125 -19.37109,-6.77734 -6.53125,2.39453 -10.99609,8.19531 -17.01562,11.48828 -6.88282,3.76172 -13.17969,-1.11719 -17.25,-6.35157 -4.70704,-6.05078 -10.60547,-7.32421 -18.06641,-6.57812 -2.75,0.27734 -2.86719,4.46484 0,4.375 8.21094,-0.25781 10.71484,3.5625 15.19141,9.41406 4.03515,5.26953 10.27734,8.26953 16.95312,8.11328 6.45313,-0.14843 11.85938,-4.45703 16.87109,-8.00781 2.29688,-1.625 4.61719,-3.16797 7.38672,-3.79297 3.2461,-0.72656 6.14453,3.25781 8.08203,5.28906 6.90625,9.51954 16.44532,19.51563 29.00391,19.37891 6.01172,-0.0664 10.95703,-3.78906 14.40234,-8.39062 3.91797,-5.23438 3.85157,-11.86329 2.69141,-17.99219 -0.45703,-2.41016 -4.54687,-1.8711 -4.29687,0.58203"
       id="path8"
       inkscape:connector-curvature="0" />
    <path
       style="fill:#211e1e;fill-opacity:1;fill-rule:nonzero;stroke:none"
       d="m 523.09375,641.0625 c 0.57422,-3.46094 2.74219,-4.52734 5.53906,-5.78125 2.89453,-0.35156 5.40625,-0.76563 6.72266,2.44531 1.4414,3.51563 1.57031,6.97656 1.35156,10.73047 -0.37891,6.5 -2.24219,13.16406 -1.72656,19.67969 -4.58203,-4.20313 -8.07422,-10.58203 -10.09766,-15.83203 -1.33203,-3.45703 -2.40625,-7.51563 -1.78906,-11.24219 m -7.15234,10.37109 c 3.7539,10.28516 11.30078,19.78516 21.67578,23.77735 0.96875,0.37109 1.79687,-0.0703 2.28515,-0.78907 0.33594,-0.39843 0.51953,-0.93359 0.44922,-1.58203 -0.004,-0.0664 -0.0156,-0.1289 -0.0273,-0.19531 -0.004,-0.043 -0.004,-0.082 -0.0156,-0.125 -1.13281,-4.91797 1.54688,-11.47266 2.6875,-16.27734 1.25782,-5.30078 2.55078,-10.8711 1.96875,-16.34766 -1.07812,-10.19922 -7.99609,-16.71094 -18.57031,-14.50391 -0.23437,0.0469 -0.45312,0.11719 -0.66406,0.19141 -0.0625,0.0117 -0.11719,0.0117 -0.17969,0.0234 -11.98828,2.71484 -13.10156,16.25781 -9.60937,25.82812"
       id="path10"
       inkscape:connector-curvature="0" />
    <path
       style="fill:#211e1e;fill-opacity:1;fill-rule:nonzero;stroke:none"
       d="m 845.43359,509.96875 -0.13281,-0.75391 c -0.0859,-0.48828 -0.17187,-0.96093 -0.26172,-1.41406 -0.0937,-0.46875 -0.21094,-0.91797 -0.32031,-1.34766 l -0.14453,-0.59375 c -0.21485,-0.95703 -0.48047,-1.78125 -0.71485,-2.5039 -0.0781,-0.23438 -0.15234,-0.45703 -0.23437,-0.71875 -0.60938,-1.7461 -1.09766,-2.71485 -1.12109,-2.75391 -0.32813,-0.64844 -1.07422,-0.96484 -1.76563,-0.7539 -0.69531,0.20703 -1.14062,0.88281 -1.05859,1.60546 l 0.0859,0.76172 c 0.0312,0.22266 0.0547,0.5 0.0781,0.83203 0.0273,0.33204 0.0586,0.70704 0.0937,1.04297 0.0156,0.29297 0.0352,0.60547 0.0586,0.9336 0.0391,0.64453 0.0859,1.35937 0.10938,2.18359 0.043,0.78516 0.0508,1.63672 0.0586,2.54297 0.004,0.46094 0.008,0.93359 0.0156,1.45312 0.0195,0.4375 -0.004,0.89063 -0.0195,1.35547 -0.0117,0.27735 -0.0234,0.5586 -0.0274,0.80469 -0.0156,0.32031 -0.0195,0.64063 -0.0234,0.96484 -0.008,0.46094 -0.0117,0.92579 -0.0586,1.45704 l -0.0469,0.79687 c -0.082,1.41406 -0.16407,2.875 -0.33204,4.35156 -0.0469,0.38672 -0.0781,0.77344 -0.10937,1.16407 -0.043,0.53125 -0.0859,1.03515 -0.17188,1.5664 L 839,525.8125 c -0.0625,0.62891 -0.17969,1.26562 -0.30469,1.94141 l -0.63672,3.58593 -1.23047,5.5625 c -0.55468,1.94532 -1.05468,3.85547 -1.44531,5.36719 -0.57812,1.74219 -1.10937,3.44141 -1.625,5.11328 -0.13672,0.51563 -0.32422,1.01563 -0.51953,1.54688 -0.082,0.21875 -0.16406,0.4375 -0.24219,0.65625 l -0.76172,2.14843 c -0.19531,0.51954 -0.37109,1.03125 -0.54296,1.52735 -0.27344,0.79687 -0.53125,1.54687 -0.82422,2.21094 -0.38282,0.92187 -0.70703,1.76562 -0.98438,2.49218 l -0.17969,0.46875 c -0.63281,1.67188 -0.95703,2.66016 -0.95703,2.66016 -0.23047,0.69141 0.0742,1.44531 0.71485,1.79297 0.22265,0.12109 0.46484,0.17578 0.70703,0.17578 0.44922,0 0.88672,-0.19922 1.17969,-0.57031 0.0273,-0.0352 0.65234,-0.83203 1.68359,-2.27735 l 0.26172,-0.37109 c 0.46094,-0.65234 1,-1.40625 1.53515,-2.21875 0.75782,-1.04297 1.42969,-2.26953 2.14454,-3.56641 l 0.0781,-0.14062 c 0.20703,-0.39453 0.43359,-0.79297 0.66016,-1.19922 0.57031,-1.00781 1.15234,-2.05078 1.66406,-3.21875 0.70703,-1.59375 1.44141,-3.28516 2.21094,-5.13672 0.5664,-1.63672 1.22656,-3.58203 1.88281,-5.66016 0.52344,-1.98437 1.01172,-3.98437 1.44531,-5.9414 0.004,-0.0352 0.0117,-0.0664 0.0156,-0.10156 0.0976,-0.64063 0.20703,-1.27735 0.3164,-1.91407 0.23438,-1.35937 0.47266,-2.76562 0.58594,-4.16015 0.18359,-1.96485 0.375,-3.99219 0.35938,-5.94532 0.0742,-1.99609 -0.043,-3.92578 -0.14844,-5.63671 -0.13281,-1.89063 -0.39063,-3.66407 -0.60938,-5.03516"
       id="path12"
       inkscape:connector-curvature="0" />
    <path
       style="fill:#211e1e;fill-opacity:1;fill-rule:nonzero;stroke:none"
       d="m 731.25,428.11328 c 0.60547,-0.0195 1.15234,-0.0625 1.62891,-0.10156 l 0.33203,-0.0234 c 1.11718,-0.0898 1.76953,-0.19141 1.76953,-0.19141 0.65625,-0.10156 1.16797,-0.625 1.25781,-1.28125 0.0898,-0.65625 -0.26172,-1.29687 -0.87109,-1.57031 -0.0234,-0.0117 -0.6211,-0.27734 -1.67188,-0.65625 l -0.26953,-0.0937 c -0.46484,-0.16797 -1.00391,-0.35937 -1.55469,-0.52344 -0.67968,-0.23437 -1.41015,-0.40234 -2.18359,-0.58203 l -1.02734,-0.23047 c -0.71094,-0.15625 -1.51954,-0.33203 -2.35938,-0.43359 l -0.4375,-0.0547 c -0.92187,-0.12109 -1.87891,-0.25 -2.92578,-0.32812 l -0.38281,-0.0156 c -1.01563,-0.0547 -2.06641,-0.10937 -3.21485,-0.10937 h -0.0117 c -1.11328,0.0234 -2.41406,0.0547 -3.75,0.15625 -0.35156,0.043 -0.70312,0.0781 -1.05468,0.10937 -0.86328,0.0859 -1.75391,0.17578 -2.59766,0.33594 -1.35547,0.21094 -2.52344,0.44531 -3.54687,0.70703 -2.05079,0.48047 -4.11719,1.14844 -6.14844,1.9961 -0.83594,0.35156 -1.63281,0.72656 -2.31641,1.08593 -0.57031,0.27344 -1.05859,0.57032 -1.45312,0.80469 l -0.36719,0.21875 c -0.96875,0.60156 -1.49219,1.03125 -1.55078,1.07813 -0.51172,0.42578 -0.67969,1.13671 -0.41797,1.75 0.23828,0.55078 0.78516,0.90234 1.37891,0.90234 0.0586,0 0.12109,-0.004 0.18359,-0.0117 0,0 0.61719,-0.0742 1.64453,-0.21094 l 5.62891,-0.67968 c 1.39062,-0.16016 2.91015,-0.33985 4.52343,-0.4961 l 1.59375,-0.17187 c 0.57422,-0.043 1.15235,-0.0899 1.73438,-0.15625 0.625,-0.0703 1.25391,-0.11719 1.88672,-0.16407 0.5039,-0.0391 1.00781,-0.0781 1.5625,-0.1289 l 3.30859,-0.25 c 1.14844,-0.0586 2.27735,-0.1211 3.33594,-0.20313 l 3.19141,-0.17187 c 0.53906,-0.0508 1.0664,-0.0703 1.57031,-0.0859 0.42187,-0.0156 0.83203,-0.0312 1.1875,-0.0586 0.43359,-0.0195 0.85547,-0.0547 1.25781,-0.0899 0.39844,-0.0312 0.77344,-0.0664 1.13672,-0.0703"
       id="path14"
       inkscape:connector-curvature="0" />
    <path
       style="fill:#211e1e;fill-opacity:1;fill-rule:nonzero;stroke:none"
       d="m 541.14844,508.08203 c 0,0 -0.74219,0.51563 -1.98047,1.47656 -1.71094,1.33203 -3.3125,2.65235 -4.88672,4.02735 -1.96094,1.66797 -4.1875,3.6914 -6.60938,6.01172 -1.0664,1.02343 -2.32812,2.24218 -3.60546,3.53515 -0.875,0.92188 -1.73829,1.88672 -2.57032,2.82422 l -0.92578,1.03516 c -2.32422,2.64843 -4.53125,5.26953 -6.5664,7.80468 l -1.51954,1.91797 -1.34375,1.86328 c -0.8789,1.22266 -1.67187,2.40235 -2.40234,3.48438 -1.60547,2.375 -2.72266,4.14844 -3.40625,5.41016 -0.76953,1.36328 -1.17187,2.17187 -1.17187,2.17187 -0.32032,0.64063 -0.14063,1.41406 0.42187,1.85156 0.27344,0.21094 0.59766,0.31641 0.92188,0.31641 0.34765,0 0.69921,-0.12109 0.97656,-0.36328 0,0 0.6875,-0.58985 1.83984,-1.69141 0.39063,-0.38672 0.85547,-0.82422 1.375,-1.3164 0.88281,-0.83594 1.98047,-1.87891 3.12891,-3.04688 0.92187,-0.92187 1.91406,-1.91797 2.93359,-3 l 3.1875,-3.32031 c 2.24219,-2.32422 4.55078,-4.82422 6.86719,-7.44531 l 3.30469,-3.82422 c 1.20312,-1.30078 2.35156,-2.61328 3.32031,-3.72266 2.18359,-2.51172 4.08984,-4.8125 5.64453,-6.82812 1.30469,-1.64844 2.54688,-3.3125 3.80078,-5.08985 0.90625,-1.28125 1.39063,-2.05078 1.39063,-2.05078 0.3789,-0.60156 0.28125,-1.39062 -0.23438,-1.88281 -0.51562,-0.49219 -1.30859,-0.55469 -1.89062,-0.14844"
       id="path16"
       inkscape:connector-curvature="0" />
    <path
       style="fill:#211e1e;fill-opacity:1;fill-rule:nonzero;stroke:none"
       d="m 750.14844,755.91406 c -0.0664,-1.21094 -0.14063,-2.46094 -0.32032,-3.67969 -0.2539,-1.8789 -0.49218,-3.5664 -0.8789,-5.13671 -0.33985,-1.73829 -0.85156,-3.41797 -1.26563,-4.78125 -0.48437,-1.55469 -1.05078,-2.96485 -1.53906,-4.14454 -0.54687,-1.29296 -1.09375,-2.4375 -1.59375,-3.33984 -0.38281,-0.78125 -0.80469,-1.46094 -1.14453,-2.00391 l -0.34375,-0.55468 c -0.89453,-1.36719 -1.53125,-2.08985 -1.55859,-2.1211 -0.46875,-0.53125 -1.25,-0.66406 -1.86719,-0.3125 -0.61719,0.35157 -0.90235,1.08985 -0.6836,1.76563 l 0.21094,0.64844 c 0.0625,0.17578 0.125,0.39843 0.20313,0.66015 0.082,0.28906 0.17578,0.61328 0.26953,0.89453 l 0.21875,0.80078 c 0.14844,0.53516 0.3125,1.13282 0.48437,1.83204 0.16407,0.61328 0.31641,1.28906 0.47657,2.0039 0.0976,0.4336 0.19921,0.88672 0.3125,1.375 0.0937,0.35938 0.16015,0.73828 0.22656,1.125 0.043,0.2461 0.0859,0.49219 0.125,0.69922 0.0508,0.28516 0.10547,0.57031 0.16797,0.85938 0.0742,0.375 0.15625,0.75781 0.21093,1.21093 l 0.12891,0.79297 c 0.1875,1.17969 0.38281,2.39453 0.51172,3.62891 0.0352,0.34375 0.082,0.6875 0.12891,1.03125 0.0625,0.42578 0.12109,0.85156 0.14843,1.32031 0.0625,0.82031 0.13282,1.64844 0.21875,2.51953 0.0625,0.51953 0.0859,1.0625 0.10938,1.64063 0.0117,0.24609 0.0195,0.49609 0.0312,0.73828 l 0.125,2.44922 0.043,4.92578 c -0.0899,1.76953 -0.13282,3.47656 -0.16016,4.8164 -0.14062,1.58985 -0.25,3.12891 -0.34766,4.66016 -0.004,0.22656 -0.0312,0.44922 -0.0547,0.67188 -0.0117,0.11328 -0.0156,0.23437 -0.0274,0.34765 v 0.008 l -0.0391,0.32032 c -0.0273,0.21875 -0.0508,0.43359 -0.0781,0.64843 l -0.0391,0.39844 v 0.004 c 0,0 0,0 0,0.004 l -0.16406,1.5625 c -0.0586,0.5 -0.10547,0.98829 -0.14844,1.46094 -0.0664,0.70703 -0.125,1.3711 -0.23437,1.97656 -0.13672,0.875 -0.23047,1.66407 -0.3125,2.34766 l 0.008,0.004 c -0.004,0.0156 -0.0117,0.0312 -0.0117,0.0508 l -0.043,0.35547 c -0.10156,0.83203 -0.16406,1.47265 -0.20312,1.89453 -0.0312,0.36719 -0.0469,0.57422 -0.0469,0.57422 -0.0508,0.71093 0.41016,1.35937 1.09766,1.55078 0.13281,0.0352 0.26562,0.0547 0.39844,0.0547 0.55468,0 1.07812,-0.3086 1.33984,-0.82422 0,0 0.10156,-0.19922 0.28125,-0.57813 v -0.004 c 0.17969,-0.37891 0.44141,-0.94141 0.76172,-1.67969 l 0.0664,-0.15235 c 0.15625,-0.35546 0.32812,-0.7539 0.5039,-1.17578 0.004,0 0,0 0.004,-0.004 0.16797,-0.39453 0.34375,-0.8086 0.49609,-1.20313 0.24219,-0.54687 0.46875,-1.15625 0.73438,-1.98047 0.16015,-0.51172 0.32031,-1.04297 0.48437,-1.59765 0.004,-0.008 0.0274,-0.0899 0.0312,-0.0977 0,-0.008 0.0274,-0.0937 0.0274,-0.10156 0,0 0.004,0 0.004,0 0.10547,-0.35938 0.21485,-0.73047 0.32813,-1.10156 v -0.004 c 0.29687,-0.96484 0.58203,-1.91406 0.78125,-2.92578 0.28125,-1.38672 0.5664,-2.85938 0.84375,-4.37891 v -0.004 l 0.0586,-0.32813 c 0.008,-0.0352 0.0117,-0.0664 0.0156,-0.10156 0.0273,-0.2461 0.0547,-0.51563 0.0859,-0.77735 0.14453,-1.32031 0.30078,-2.80859 0.4336,-4.41406 0.0664,-1.7539 0.0898,-3.55469 0.0781,-5.34375 0,-0.0351 -0.004,-0.0703 -0.004,-0.10547 -0.043,-0.55859 -0.0742,-1.11718 -0.10547,-1.67578"
       id="path18"
       inkscape:connector-curvature="0" />
    <path
       style="fill:#211e1e;fill-opacity:1;fill-rule:nonzero;stroke:none"
       d="m 879.59766,579.07812 c -0.35938,2.44922 -1.33594,5.02735 -2.99219,7.90625 -0.71485,1.25782 -1.50391,2.5586 -2.36328,3.88672 -0.875,1.37891 -1.67969,2.55469 -2.44532,3.5625 -0.79296,1.01953 -1.66015,2.06641 -2.59765,2.83594 -0.82031,0.66406 -1.5625,1.01953 -2.14844,1.02734 -0.0273,0 -0.10156,0.004 -0.13281,0.004 -0.50781,0 -1.15625,-0.33594 -1.75391,-0.9375 -0.34765,-0.32812 -0.70703,-0.86719 -0.90625,-1.17578 -0.32422,-0.53906 -0.5664,-0.98438 -0.72656,-1.48828 -0.21484,-0.63281 -0.17188,-1.28516 0.14062,-2.00391 0.41407,-0.95312 1.10547,-1.99219 1.83985,-3.08984 l 1.57031,-2.39063 c 0.37891,-0.55859 0.78906,-1.14843 1.23828,-1.71875 0.28516,-0.37109 0.57813,-0.72656 0.88281,-1.09765 l 0.58204,-0.71485 c 0.7539,-0.9375 1.36718,-1.87109 1.82031,-2.76562 1.00781,-1.96875 1.49219,-3.92578 1.85937,-5.73438 0.26172,-1.25781 0.64453,-2.38281 1.14063,-3.34765 0.45703,-0.88672 1.08594,-1.67969 1.72265,-2.1836 0.39844,-0.30468 0.78516,-0.48047 1.0586,-0.48047 0.0312,0 0.0664,0.004 0.082,0.008 0.0586,0.0117 0.11328,0.0234 0.16797,0.0312 0.0664,0.0664 0.17578,0.19531 0.30859,0.40234 0.42969,0.67578 0.8086,1.59766 1.1211,2.73828 0.28906,1.04297 0.48046,2.1836 0.58203,3.42188 0.10547,1.17578 0.0859,2.30078 -0.0508,3.30468 m 6.3125,-8.05859 c -0.1875,-1.54687 -0.45704,-3.21484 -1.1836,-4.95312 -0.47656,-1.14063 -1.0664,-2.07813 -1.82422,-2.89454 -0.34375,-0.36328 -0.88672,-0.89062 -1.625,-1.32812 -0.47656,-0.29297 -1,-0.53125 -1.59765,-0.72266 -0.15235,-0.0586 -0.3125,-0.10937 -0.47657,-0.14453 -1.37109,-0.375 -2.92968,-0.41797 -4.17968,-0.16797 -1.28125,0.22657 -2.52344,0.73828 -3.80078,1.5625 -1.8125,1.17578 -3.32422,2.84375 -4.63282,5.11719 -1.03906,1.82422 -1.76172,3.80859 -2.14453,5.85547 -0.24219,1.19531 -0.55078,2.5625 -1.01953,3.61328 -0.16406,0.36719 -0.40234,0.75781 -0.79687,1.30859 l -0.47657,0.66016 c -0.32422,0.44531 -0.66015,0.90625 -0.96484,1.35156 -0.58203,0.83985 -1.09766,1.6836 -1.52344,2.40625 l -1.2539,2.26172 c -0.79297,1.46875 -1.69141,3.13281 -2.25,5.15625 -0.33985,1.26172 -0.46875,2.5 -0.39454,3.625 0.0586,1.16406 0.36719,2.35938 0.91797,3.58985 0.44922,1.07421 1.07422,1.95703 1.57422,2.66796 0.008,0.0117 0.0703,0.0937 0.0742,0.10547 0.57031,0.78125 1.21875,1.51563 2.07422,2.32813 1.86719,1.74219 4.15234,2.78906 6.4375,2.94922 0.24219,0.0195 0.48828,0.0273 0.73047,0.0273 1.96875,0 3.97656,-0.54687 5.97656,-1.63281 1.79688,-0.98828 3.41406,-2.27344 4.78906,-3.80469 1.25782,-1.37109 2.37891,-2.96094 3.34766,-4.75 0.82422,-1.55469 1.52344,-3.30078 2.09375,-5.21484 0.83984,-2.9336 1.33984,-5.84766 1.82422,-8.66407 l 0.22265,-1.29687 c 0.24219,-1.55078 0.27344,-3.03125 0.30469,-4.55078 -0.004,-1.72266 -0.0742,-3.13281 -0.22265,-4.46094"
       id="path20"
       inkscape:connector-curvature="0" />
  </g>
</svg>
